<svg width="20" height="24" viewBox="0 0 20 24" fill="none" xmlns="http://www.w3.org/2000/svg">
<path d="M4.28571 2.40006C3.90683 2.40006 3.54347 2.52649 3.27556 2.75154C3.00765 2.97658 2.85714 3.28182 2.85714 3.60008V21.6005L7.11143 18.34C7.90098 17.7349 8.93121 17.3994 10 17.3994C11.0688 17.3994 12.099 17.7349 12.8886 18.34L17.1429 21.6005V3.60008C17.1429 3.28182 16.9923 2.97658 16.7244 2.75154C16.4565 2.52649 16.0932 2.40006 15.7143 2.40006H4.28571ZM4.28571 0H15.7143C16.8509 0 17.941 0.379293 18.7447 1.05444C19.5485 1.72959 20 2.64528 20 3.60008V21.6005C19.9999 22.0658 19.8387 22.521 19.5362 22.9108C19.2337 23.3005 18.8029 23.608 18.2961 23.7958C17.7893 23.9836 17.2285 24.0436 16.6818 23.9685C16.1352 23.8935 15.6263 23.6865 15.2171 23.3729L10.9629 20.1125C10.6997 19.9108 10.3563 19.7989 10 19.7989C9.64374 19.7989 9.30033 19.9108 9.03714 20.1125L4.78286 23.3729C4.37368 23.6865 3.8648 23.8935 3.31817 23.9685C2.77153 24.0436 2.2107 23.9836 1.70392 23.7958C1.19715 23.608 0.766289 23.3005 0.463772 22.9108C0.161255 22.521 0.000128128 22.0658 0 21.6005L0 3.60008C0 2.64528 0.451529 1.72959 1.25526 1.05444C2.05898 0.379293 3.14907 0 4.28571 0Z" fill="#5700EC"/>
</svg>
