<svg width="14" height="14" viewBox="0 0 14 14" fill="none" xmlns="http://www.w3.org/2000/svg">
<path d="M5.16079 10.3216C3.71842 10.3216 2.49782 9.82191 1.49901 8.82257C0.5002 7.82323 0.000529732 6.60264 4.20089e-07 5.16079C-0.000528892 3.71895 0.499142 2.49835 1.49901 1.49901C2.49888 0.499671 3.71948 0 5.16079 0C6.60211 0 7.82297 0.499671 8.82337 1.49901C9.82377 2.49835 10.3232 3.71895 10.3216 5.16079C10.3216 5.74303 10.229 6.2922 10.0437 6.80827C9.85844 7.32435 9.60701 7.78089 9.28942 8.17787L13.7356 12.6241C13.8812 12.7697 13.954 12.9549 13.954 13.1799C13.954 13.4048 13.8812 13.5901 13.7356 13.7356C13.5901 13.8812 13.4048 13.954 13.1799 13.954C12.9549 13.954 12.7697 13.8812 12.6241 13.7356L8.17787 9.28942C7.78089 9.60701 7.32435 9.85843 6.80828 10.0437C6.2922 10.229 5.74303 10.3216 5.16079 10.3216ZM5.16079 8.73365C6.15325 8.73365 6.99697 8.38642 7.69196 7.69196C8.38695 6.9975 8.73418 6.15378 8.73365 5.16079C8.73312 4.1678 8.38589 3.32434 7.69196 2.63042C6.99803 1.93649 6.15431 1.58899 5.16079 1.58794C4.16727 1.58688 3.32381 1.93437 2.63042 2.63042C1.93702 3.32646 1.58952 4.16992 1.58794 5.16079C1.58635 6.15166 1.93384 6.99539 2.63042 7.69196C3.32699 8.38854 4.17045 8.73576 5.16079 8.73365Z" fill="#82FF03"/>
</svg>
