<svg width="23" height="24" viewBox="0 0 23 24" fill="none" xmlns="http://www.w3.org/2000/svg">
<path d="M10.0806 24C9.53703 24 9.06913 23.82 8.67694 23.46C8.28475 23.1 8.04799 22.66 7.96665 22.14L7.69485 20.16C7.43312 20.06 7.18669 19.94 6.95557 19.8C6.72444 19.66 6.49774 19.51 6.27547 19.35L4.4031 20.13C3.89977 20.35 3.39645 20.37 2.89312 20.19C2.38979 20.01 1.9972 19.69 1.71534 19.23L0.295956 16.77C0.014093 16.31 -0.066439 15.82 0.0543593 15.3C0.175158 14.78 0.446954 14.35 0.869748 14.01L2.47033 12.81C2.45019 12.67 2.44013 12.5348 2.44013 12.4044V11.5944C2.44013 11.4648 2.45019 11.33 2.47033 11.19L0.869748 9.99C0.446954 9.65 0.175158 9.22 0.0543593 8.7C-0.066439 8.18 0.014093 7.69 0.295956 7.23L1.71534 4.77C1.9972 4.31 2.38979 3.99 2.89312 3.81C3.39645 3.63 3.89977 3.65 4.4031 3.87L6.27547 4.65C6.49694 4.49 6.72847 4.34 6.97006 4.2C7.21166 4.06 7.45326 3.94 7.69485 3.84L7.96665 1.86C8.04718 1.34 8.28395 0.9 8.67694 0.54C9.06994 0.18 9.53783 0 10.0806 0H12.9194C13.463 0 13.9313 0.18 14.3243 0.54C14.7173 0.9 14.9536 1.34 15.0333 1.86L15.3051 3.84C15.5669 3.94 15.8137 4.06 16.0456 4.2C16.2776 4.34 16.5039 4.49 16.7245 4.65L18.5969 3.87C19.1002 3.65 19.6036 3.63 20.1069 3.81C20.6102 3.99 21.0028 4.31 21.2847 4.77L22.704 7.23C22.9859 7.69 23.0664 8.18 22.9456 8.7C22.8248 9.22 22.553 9.65 22.1303 9.99L20.5297 11.19C20.5498 11.33 20.5599 11.4652 20.5599 11.5956V12.4044C20.5599 12.5348 20.5397 12.67 20.4995 12.81L22.1001 14.01C22.5228 14.35 22.7946 14.78 22.9154 15.3C23.0362 15.82 22.9557 16.31 22.6738 16.77L21.2243 19.23C20.9424 19.69 20.5498 20.01 20.0465 20.19C19.5432 20.37 19.0398 20.35 18.5365 20.13L16.7245 19.35C16.5031 19.51 16.2715 19.66 16.0299 19.8C15.7883 19.94 15.5467 20.06 15.3051 20.16L15.0333 22.14C14.9528 22.66 14.7165 23.1 14.3243 23.46C13.9321 23.82 13.4638 24 12.9194 24H10.0806ZM11.5604 16.2C12.7281 16.2 13.7247 15.79 14.5502 14.97C15.3756 14.15 15.7883 13.16 15.7883 12C15.7883 10.84 15.3756 9.85 14.5502 9.03C13.7247 8.21 12.7281 7.8 11.5604 7.8C10.3725 7.8 9.37073 8.21 8.55494 9.03C7.73915 9.85 7.33165 10.84 7.33246 12C7.33326 13.16 7.74116 14.15 8.55614 14.97C9.37113 15.79 10.3725 16.2 11.5604 16.2Z" fill="#82FF03"/>
</svg>
