<svg width="60" height="60" viewBox="0 0 60 60" fill="none" xmlns="http://www.w3.org/2000/svg">
<rect x="58.5" y="58.5" width="57" height="57" rx="18.5" transform="rotate(-180 58.5 58.5)" fill="#1A1A1A" stroke="#82FF03" stroke-width="3"/>
<path d="M17.239 28.25C16.2725 28.25 15.489 29.0335 15.489 30C15.489 30.9665 16.2725 31.75 17.239 31.75V30V28.25ZM43.9875 31.2374C44.6709 30.554 44.6709 29.446 43.9875 28.7626L32.8505 17.6256C32.1671 16.9422 31.0591 16.9422 30.3757 17.6256C29.6923 18.309 29.6923 19.4171 30.3757 20.1005L40.2752 30L30.3757 39.8995C29.6923 40.5829 29.6923 41.691 30.3757 42.3744C31.0591 43.0578 32.1671 43.0578 32.8505 42.3744L43.9875 31.2374ZM17.239 30V31.75L42.75 31.75V30V28.25L17.239 28.25V30Z" fill="#82FF03"/>
</svg>
