<svg width="60" height="60" viewBox="0 0 60 60" fill="none" xmlns="http://www.w3.org/2000/svg">
<rect x="58.5" y="58.5" width="57" height="57" rx="18.5" transform="rotate(-180 58.5 58.5)" fill="#FAFAF8" stroke="#5700EC" stroke-width="3"/>
<path d="M17.239 28.5C16.4106 28.5 15.739 29.1716 15.739 30C15.739 30.8284 16.4106 31.5 17.239 31.5V30V28.5ZM43.8107 31.0607C44.3965 30.4749 44.3965 29.5251 43.8107 28.9393L34.2648 19.3934C33.679 18.8076 32.7292 18.8076 32.1434 19.3934C31.5577 19.9792 31.5577 20.9289 32.1434 21.5147L40.6287 30L32.1434 38.4853C31.5577 39.0711 31.5577 40.0208 32.1434 40.6066C32.7292 41.1924 33.679 41.1924 34.2648 40.6066L43.8107 31.0607ZM17.239 30V31.5L42.75 31.5V30V28.5L17.239 28.5V30Z" fill="#5700EC"/>
</svg>
