<svg width="60" height="60" viewBox="0 0 60 60" fill="none" xmlns="http://www.w3.org/2000/svg">
<rect x="1.5" y="1.5" width="57" height="57" rx="18.5" fill="#FAFAF8" stroke="#5700EC" stroke-width="3"/>
<path d="M42.761 31.5C43.5894 31.5 44.261 30.8284 44.261 30C44.261 29.1716 43.5894 28.5 42.761 28.5V30V31.5ZM16.1893 28.9393C15.6035 29.5251 15.6035 30.4749 16.1893 31.0607L25.7352 40.6066C26.321 41.1924 27.2708 41.1924 27.8566 40.6066C28.4423 40.0208 28.4423 39.0711 27.8566 38.4853L19.3713 30L27.8566 21.5147C28.4423 20.9289 28.4423 19.9792 27.8566 19.3934C27.2708 18.8076 26.321 18.8076 25.7352 19.3934L16.1893 28.9393ZM42.761 30V28.5L17.25 28.5V30V31.5L42.761 31.5V30Z" fill="#5700EC"/>
</svg>
